<?xml version="1.0" encoding="iso-8859-1"?>
<!-- Uploaded to: SVG Repo, www.svgrepo.com, Generator: SVG Repo Mixer Tools -->
<svg version="1.1" id="Layer_1" xmlns="http://www.w3.org/2000/svg" xmlns:xlink="http://www.w3.org/1999/xlink" 
	 viewBox="0 0 512.008 512.008" xml:space="preserve">
<rect x="239.308" y="447.104" style="fill:#AAA9AF;" width="33.387" height="64.904"/>
<path style="fill:#DDDCDF;" d="M314.309,206.04v150.157h-16.612V215.645h-33.387v140.551h-16.613v-140.55h-33.387v140.55h-16.612
	V206.318h-33.387v165.785c0,50.56,41.132,91.692,91.692,91.692s91.692-41.132,91.692-91.692V206.04H314.309z"/>
<path style="fill:#CCCCCF;" d="M314.309,206.04v150.157h-16.612V215.645h-33.387v140.551h-8.307v107.599
	c50.56,0,91.692-41.132,91.692-91.692V206.04H314.309z"/>
<polygon style="fill:#E05323;" points="66.756,0 33.369,0.141 33.51,33.487 0.166,33.344 0.024,66.731 50.205,66.945 50.276,50.251 
	66.969,50.181 "/>
<polygon style="fill:#A5401D;" points="511.983,66.731 511.841,33.344 478.496,33.487 478.639,0.141 445.252,0 445.038,50.181 
	461.732,50.251 461.803,66.945 "/>
<path style="fill:#ECAE44;" d="M255.745,109.336C345.391,109.542,404.277-21.666,470.3,44.43
	c66.025,66.097-78.171,177.565-214.296,177.25C119.878,221.996-24.318,110.528,41.708,44.43
	c66.023-66.096,124.908,65.112,214.555,64.906H255.745z"/>
<path style="fill:#E89918;" d="M255.745,109.336C345.391,109.542,404.277-21.666,470.3,44.43
	c66.025,66.097-78.171,177.565-214.296,177.25c0,0-0.259-112.345,0.259-112.345h-0.519V109.336z"/>
<path style="fill:#E05323;" d="M272.943,107.778c-5.525,1.003-11.169,1.552-16.939,1.555c-5.599-0.002-11.079-0.517-16.447-1.463
	v42.696h33.387V107.778z"/>
<path style="fill:#A5401D;" d="M272.943,107.778c-5.525,1.003-11.169,1.552-16.939,1.555c0,2.911-0.058,41.233-0.058,41.233h16.997
	V107.778z"/>
<path style="fill:#E05323;" d="M210.368,98.472c-10.044-4.611-19.709-10.361-29.071-16.595l-17.836,37.242l30.112,14.422
	L210.368,98.472z"/>
<path style="fill:#A5401D;" d="M318.929,133.54l30.112-14.422l-17.957-37.491c-9.353,6.247-19.008,12.017-29.041,16.657
	L318.929,133.54z"/>
</svg>